<?xml version="1.0" standalone="no"?>
<!DOCTYPE svg PUBLIC "-//W3C//DTD SVG 20010904//EN"
 "http://www.w3.org/TR/2001/REC-SVG-20010904/DTD/svg10.dtd">
<svg version="1.0" xmlns="http://www.w3.org/2000/svg"
 width="674.000000pt" height="438.000000pt" viewBox="0 0 674.000000 438.000000"
 preserveAspectRatio="xMidYMid meet">

<g transform="translate(0.000000,438.000000) scale(0.100000,-0.100000)"
fill="#fff" stroke="none">
<path d="M184 4331 c-73 -18 -137 -87 -155 -166 -18 -80 5 -149 67 -204 59
-51 111 -63 282 -60 75 1 137 -2 143 -8 5 -5 13 -70 19 -144 10 -144 36 -561
45 -724 3 -55 10 -161 15 -235 5 -74 17 -247 25 -385 8 -137 20 -324 25 -415
6 -91 15 -244 20 -340 19 -344 36 -526 51 -535 5 -4 9 -15 9 -25 0 -29 107
-133 165 -161 l50 -24 395 0 395 0 54 29 c30 15 72 46 93 68 72 75 94 143 103
323 7 134 31 526 45 729 6 82 15 235 20 340 6 105 12 211 15 236 3 25 10 128
15 230 5 102 14 248 19 325 5 77 17 265 27 418 10 152 21 281 24 287 3 5 81
10 179 10 133 1 176 -1 182 -11 4 -7 10 -41 13 -74 13 -152 37 -420 47 -520 6
-60 14 -163 19 -228 5 -64 14 -163 19 -220 6 -56 17 -176 25 -267 36 -388 47
-511 57 -615 5 -60 14 -163 19 -229 5 -65 17 -153 25 -194 63 -305 282 -534
590 -618 66 -18 112 -19 740 -19 627 0 674 1 740 19 182 49 331 152 452 311
81 106 153 315 153 442 0 26 6 111 14 188 8 77 22 221 31 320 9 99 21 225 26
280 6 55 15 159 19 230 5 72 13 180 19 240 6 61 18 189 26 285 9 96 22 240 30
320 8 80 17 186 21 237 3 51 11 99 18 108 9 13 40 16 182 18 l171 2 52 35 c83
57 115 145 86 243 -16 55 -58 105 -117 139 -19 11 -524 13 -2898 15 -1581 0
-2889 -2 -2906 -6z m5791 -126 c30 -31 35 -42 35 -83 0 -54 -18 -85 -60 -107
-26 -13 -370 -15 -2882 -15 -2844 0 -2853 0 -2886 20 -40 25 -66 80 -57 122 4
16 22 45 41 64 l35 34 2869 0 2869 0 36 -35z m-3935 -338 c0 -37 -16 -299 -30
-512 -6 -82 -15 -226 -20 -320 -9 -173 -22 -368 -41 -645 -5 -85 -14 -229 -19
-320 -32 -603 -56 -893 -75 -933 -23 -49 -71 -94 -123 -117 -42 -19 -67 -20
-396 -20 -397 0 -398 1 -474 79 -50 51 -72 126 -72 242 0 46 -5 136 -10 199
-6 63 -14 196 -20 295 -5 99 -14 248 -20 330 -15 215 -30 454 -40 650 -5 94
-14 238 -20 320 -31 446 -47 743 -42 769 3 14 65 16 685 18 375 2 690 1 700
-1 12 -2 17 -13 17 -34z m3460 -19 c0 -29 -6 -118 -14 -198 -22 -218 -36 -373
-46 -490 -19 -231 -31 -361 -45 -490 -8 -74 -22 -216 -30 -315 -9 -99 -22
-247 -30 -330 -8 -82 -17 -188 -20 -235 -22 -292 -78 -444 -216 -577 -105
-102 -170 -140 -324 -190 -43 -14 -133 -17 -685 -20 -664 -5 -677 -4 -805 40
-203 69 -374 249 -439 462 -19 63 -48 323 -76 690 -5 66 -14 165 -19 220 -11
102 -37 391 -46 500 -3 33 -10 105 -15 160 -5 55 -17 181 -25 280 -9 99 -23
243 -31 320 -15 154 -17 208 -7 218 3 4 651 7 1440 7 l1433 0 0 -52z"/>
</g>
</svg>
