<svg version="1.1" id="Layer_1" xmlns="http://www.w3.org/2000/svg" xmlns:xlink="http://www.w3.org/1999/xlink" x="0px" y="0px"
	 width="100%" viewBox="0 0 538 531" enable-background="new 0 0 538 531" xml:space="preserve">
<path fill="none" opacity="1.000000" stroke="#fff" stroke-linecap="round" stroke-linejoin="round" stroke-width="11.000000"
	d="
M458.000000,131.500000
	C457.000000,150.333328 455.775024,169.158691 455.106079,188.003769
	C454.821930,196.009735 454.499237,204.078079 453.722717,211.972733
	C452.362061,225.805893 452.619507,239.690308 451.308289,253.529205
	C450.322601,263.932556 449.692230,274.487305 449.514221,285.000244
	C449.214386,302.708588 447.605591,320.339264 446.507843,338.000488
	C446.238800,342.328644 446.507477,346.653595 446.107758,351.009888
	C445.392212,358.808167 445.636597,366.694031 444.932648,374.493927
	C443.715851,387.976685 443.707214,401.508026 442.868378,414.991821
	C442.018188,428.658203 440.992004,442.309509 440.459412,455.998413
	C439.978577,468.356476 438.591003,480.497742 432.050293,491.529816
	C424.257141,504.674225 413.547760,514.242310 398.963348,518.884827
	C392.728149,520.869629 386.244537,522.096985 379.499786,522.077332
	C330.333527,521.933716 281.160461,522.467651 232.002441,521.815735
	C204.711258,521.453796 185.121307,504.334503 176.758133,479.911621
	C174.450256,473.171906 172.559647,465.742432 175.150879,457.884857
	C176.155762,454.837738 173.413834,450.551117 173.380341,446.500977
	C173.326553,439.997314 172.531540,433.497375 171.993820,427.000519
	C170.629959,410.522156 170.549744,393.978668 169.233597,377.481354
	C168.439987,367.533875 167.763657,357.511139 167.506210,347.499847
	C167.042572,329.469360 165.385971,311.498169 164.669235,293.493256
	C164.124649,279.812988 163.040192,266.173981 162.439438,252.502655
	C161.691925,235.491562 160.499252,218.500046 159.503693,201.499786
	C159.474503,201.001495 159.352982,200.442795 159.521927,200.008530
	C162.308411,192.846512 158.303528,186.046097 158.405014,178.998627
	C158.505707,172.004883 157.796921,165.001495 157.509201,157.999619
	C157.146286,149.167542 155.285004,140.391754 156.500000,131.500000
"/>
<path fill="none" opacity="1.000000" stroke="#fff" stroke-linecap="round" stroke-linejoin="round" stroke-width="11.000000"
	d="
M176.000000,457.500000
	C178.166672,457.333344 180.333252,457.022308 182.500015,457.021149
	C233.666672,456.993866 284.833466,456.942749 335.999908,457.045044
	C347.132202,457.067291 355.533478,452.743713 360.981232,442.989532
	C362.874268,439.600067 363.980072,435.899963 363.981476,432.000000
	C364.006805,360.666656 364.025543,289.333313 363.977051,218.000015
	C363.968048,204.759735 351.835388,193.000000 338.500000,193.000000
	C281.166656,193.000000 223.833328,192.993210 166.500031,193.033997
	C164.843506,193.035172 163.077469,192.441299 161.500000,193.500000
"/>
<path fill="none" opacity="1.000000" stroke="#fff" stroke-linecap="round" stroke-linejoin="round" stroke-width="11.000000"
	d="
M458.000000,131.000000
	C460.942352,129.267868 464.124725,128.933640 467.500305,128.956802
	C482.166260,129.057465 496.842773,128.678085 511.496887,129.106842
	C522.269836,129.422028 530.282959,121.515884 530.480713,112.499580
	C530.704346,102.304680 522.784058,94.445793 511.999847,94.003540
	C511.334320,93.976250 510.666656,94.000000 510.000000,94.000000
	C374.166656,94.000000 238.333328,94.011375 102.500008,93.980408
	C90.418053,93.977654 81.081604,104.371689 83.950424,116.012215
	C85.739799,123.272774 92.595238,128.962158 100.500038,128.986435
	C115.666565,129.033035 130.833450,128.965256 145.999939,129.016281
	C152.500275,129.038147 158.991699,129.313171 165.501251,129.284637
	C260.166077,128.869766 354.833344,129.011749 449.499969,128.943344
	C452.345032,128.941284 454.898346,129.653229 457.500000,130.500000
"/>
</svg>
