<?xml version="1.0" standalone="no"?>
<!DOCTYPE svg PUBLIC "-//W3C//DTD SVG 20010904//EN"
 "http://www.w3.org/TR/2001/REC-SVG-20010904/DTD/svg10.dtd">
<svg version="1.0" xmlns="http://www.w3.org/2000/svg"
 width="512.000000pt" height="512.000000pt" viewBox="0 0 512.000000 512.000000"
 preserveAspectRatio="xMidYMid meet">

<g transform="translate(0.000000,512.000000) scale(0.100000,-0.100000)"
fill="#f1f1f1" stroke="none">
<path d="M2405 4710 c-141 -22 -327 -97 -445 -181 -74 -52 -192 -170 -245
-244 -203 -283 -250 -667 -121 -985 18 -43 22 -62 13 -65 -7 -2 -212 -47 -457
-100 -245 -52 -455 -100 -467 -107 -33 -17 -431 -686 -442 -742 -15 -82 15
-173 74 -225 19 -16 95 -53 179 -86 l146 -58 0 -441 c0 -373 2 -450 15 -488
15 -44 59 -97 100 -123 29 -19 1788 -705 1806 -705 8 0 418 157 910 350 l894
349 45 49 c25 27 51 67 58 89 9 29 12 166 12 480 l0 439 146 58 c80 32 159 70
175 84 17 13 41 47 56 75 21 43 24 61 21 121 l-4 71 -207 346 c-123 204 -217
351 -230 357 -12 7 -222 55 -467 107 -245 53 -450 98 -457 100 -9 3 -5 22 13
65 62 152 86 349 64 512 -57 427 -363 770 -781 877 -96 25 -306 36 -404 21z
m262 -161 c140 -19 276 -69 380 -140 70 -47 178 -154 229 -226 211 -293 211
-713 0 -1006 -51 -72 -159 -179 -229 -226 -246 -167 -588 -192 -861 -62 -397
189 -595 645 -460 1058 104 318 370 546 699 598 103 17 146 17 242 4z m-1067
-2019 c454 -178 828 -326 832 -329 8 -8 -346 -600 -374 -623 -11 -10 -29 -18
-41 -18 -28 0 -1578 608 -1599 627 -40 36 -26 68 160 377 97 163 182 294 187
292 6 -2 381 -149 835 -326z m2943 34 c186 -310 199 -341 159 -378 -23 -20
-1569 -626 -1598 -626 -12 0 -31 8 -42 18 -18 15 -370 591 -375 614 -1 6 1634
658 1673 667 3 1 85 -132 183 -295z m-2065 -1808 l-3 -394 -765 299 c-936 366
-885 344 -899 375 -8 17 -11 146 -11 419 0 217 2 395 4 395 2 0 263 -101 579
-225 515 -202 580 -225 633 -225 69 0 130 26 171 73 15 18 87 130 158 250
l130 217 3 -395 c1 -217 1 -572 0 -789z m315 937 c162 -269 196 -299 327 -291
61 4 322 102 1188 445 17 7 18 -773 1 -811 -7 -15 -30 -33 -58 -45 -42 -18
-1407 -553 -1548 -607 l-63 -24 0 792 c0 664 2 789 13 773 8 -11 71 -115 140
-232z"/>
<path d="M2399 4297 c-18 -12 -44 -38 -56 -56 -21 -31 -23 -45 -23 -177 l0
-144 -144 0 c-132 0 -146 -2 -177 -23 -18 -12 -44 -38 -56 -56 -21 -31 -23
-45 -23 -161 0 -116 2 -130 23 -161 12 -18 38 -44 56 -56 31 -21 45 -23 177
-23 l144 0 0 -144 c0 -132 2 -146 23 -177 12 -18 38 -44 56 -56 31 -21 45 -23
161 -23 116 0 130 2 161 23 18 12 44 38 56 56 21 31 23 45 23 177 l0 144 144
0 c132 0 146 2 177 23 18 12 44 38 56 56 21 31 23 45 23 161 0 116 -2 130 -23
161 -12 18 -38 44 -56 56 -31 21 -45 23 -177 23 l-144 0 0 144 c0 132 -2 146
-23 177 -12 18 -38 44 -56 56 -31 21 -45 23 -161 23 -116 0 -130 -2 -161 -23z
m241 -312 c0 -238 -13 -225 225 -225 l175 0 0 -80 0 -80 -175 0 c-238 0 -225
13 -225 -225 l0 -175 -80 0 -80 0 0 175 c0 238 13 225 -225 225 l-175 0 0 80
0 80 175 0 c238 0 225 -13 225 225 l0 175 80 0 80 0 0 -175z"/>
</g>
</svg>
