<?xml version="1.0" encoding="utf-8"?>
<!-- Generator: Adobe Illustrator 18.1.1, SVG Export Plug-In . SVG Version: 6.00 Build 0)  -->
<svg version="1.1" id="Layer_1" xmlns="http://www.w3.org/2000/svg" xmlns:xlink="http://www.w3.org/1999/xlink" x="0px" y="0px"
	 viewBox="102 83 816 628" enable-background="new 102 83 816 628" xml:space="preserve">
<path fill="#FEFEFE" d="M102,83c269.3,0,538.6,0,816,0c0,207.2,0,414.5,0,628c-269.3,0-538.6,0-816,0C102,503.8,102,296.5,102,83z"
	/>
<path fill="#FEFEFE" d="M102,83c269.3,0,538.6,0,816,0c0,207.2,0,414.5,0,628c-269.3,0-538.6,0-816,0c0-104.3,0-208.6,0-316
	c2.7,1.4,2.8,2.7,3.9,5.5c6.3,12.9,23.8,20.2,35.9,26.8c12.4,6.8,24.6,14.2,36.9,21.4c2.6,1.5,5.1,3,7.7,4.5
	c1.9,1.1,3.8,2.2,5.7,3.3c0.9,0.5,1.9,1.1,2.8,1.7c5,2.9,9.9,5.9,14.8,9.1c14,9.5,14,9.5,30.3,10.8c11.7-4.5,17.8-13,23.7-23.7
	c1-1.9,2.1-3.8,3.1-5.6c0.5-0.9,1.1-1.9,1.6-2.9c2.4-4.4,4.9-8.7,7.4-13c0.5-0.9,1-1.7,1.5-2.6c4-6.9,8-13.9,12-20.8
	c5.3-9.1,10.5-18.2,15.7-27.3c0.3-0.6,0.7-1.2,1-1.8c2.4-4.1,4.7-8.2,7.1-12.4c2.7-4.7,5.4-9.4,8.1-14.1c0.5-0.9,0.5-0.9,1-1.7
	c5.6-9.7,11.2-19.5,16.8-29.2c3.7-6.5,7.4-13,11.1-19.5c2.1-3.8,4.4-7.6,6.7-11.4c7.2-11.8,12.7-22.7,9.5-36.7
	c-1.3-4.5-2.7-8.9-4.2-13.3c-0.5-1.5-0.5-1.5-1-3c-1.4-4.2-2.8-8.3-4.2-12.5c-2.5-7.4-4.8-14.9-6.9-22.4c-0.8-3-0.8-3-2.1-5.3
	c-0.8-1.8-0.8-1.8-0.7-3.7c2.3-5.9,10.1-9.4,15.6-11.9c5.9-2.5,11.8-4.7,18.1-5.8c2.3-0.4,2.3-0.4,5.3-1.4c4.1-1.1,8-1.4,12.2-1.6
	c0.7,0,1.5-0.1,2.2-0.1c1.8-0.1,3.6-0.2,5.3-0.3c-0.4,5.3-0.8,10.5-1.9,15.7c-1.3,6.2-2,12.5-2.8,18.9c-0.6,4.8-1.2,9.6-1.8,14.3
	c-0.1,1-0.2,1.9-0.4,2.9c-0.1,0.9-0.2,1.8-0.4,2.8c-0.2,1.2-0.2,1.2-0.3,2.5c-0.4,2.6-0.9,5.1-1.4,7.7c-1,5-1.8,10-2.5,15
	c-0.2,1.4-0.2,1.4-0.4,2.7c-1.3,9.1-2.5,18.3-3.7,27.4c-1.9,14.4-3.9,28.8-6.2,43.2c-0.9,5.3-1.5,10.6-1.9,16
	C382,345,382,345,381,346c-0.3,1.8-0.6,3.7-0.9,5.5c-0.2,1.2-0.3,2.4-0.5,3.6c-0.2,1.3-0.4,2.7-0.6,4c-0.2,1.4-0.4,2.8-0.6,4.2
	c-0.5,3.8-1.1,7.5-1.6,11.3c-0.5,3.2-0.9,6.3-1.4,9.5c-3.1,21.3-6.1,42.6-9,63.9c-2.7,19.5-5.6,39-8.6,58.5
	c-2.5,16.5-4.9,32.9-7.2,49.4c-2.4,17.4-5,34.8-7.5,52.1c-0.4,3-0.9,6.1-1.3,9.1c-0.1,1-0.3,2-0.4,3c-1.1,7.7-2.2,15.4-3.3,23.1
	c-0.5,3.4-1,6.8-1.5,10.1c-1.8,11.1-0.9,20.3,5.6,29.6c4.1,4.9,10.9,8.3,17.2,9.4c2.3,0.1,4.6,0.2,7,0.1c0.9,0,1.8,0,2.7,0
	c3,0,5.9,0,8.9,0c2.1,0,4.3,0,6.4,0c5.9,0,11.8,0,17.7,0c6.4,0,12.7,0,19.1,0c11,0,22,0,33,0c11.6,0,23.1,0,34.7,0
	c0.7,0,1.4,0,2.2,0c2.9,0,5.8,0,8.8,0c27.4,0,54.7,0,82.1,0c24.3,0,48.6,0,73,0c1.6,0,3.1,0,4.7,0c1.2,0,1.2,0,2.3,0
	c3.9,0,7.8,0,11.7,0c0.8,0,1.5,0,2.3,0c20.3,0,40.6,0,61,0c0.7,0,1.4,0,2.2,0c2.9,0,5.8,0,8.7,0c10.1,0,20.2,0,30.3,0
	c13,0,26.1,0,39.1,0c6.3,0,12.6,0,18.9,0c5.8,0,11.5,0,17.3,0c2.1,0,4.2,0,6.2,0c2.8,0,5.7,0,8.5,0c0.8,0,1.6,0,2.4,0
	c10.5-0.1,18.6-2.5,26.4-9.8c6.1-6.8,5.8-13.9,5.4-22.5c-0.7-5.9-1.6-11.8-2.5-17.7c-0.3-1.7-0.5-3.4-0.8-5.1
	c-0.7-4.5-1.4-9-2.1-13.4c-1.1-7.1-2.2-14.2-3.3-21.3c-0.3-1.7-0.5-3.5-0.8-5.2c-2.4-15.4-4.5-30.8-6.6-46.3
	c-0.2-1.6-0.4-3.1-0.6-4.7c-0.3-2.4-0.7-4.9-1-7.3c-1.2-8.6-2.3-17.3-3.9-25.8c-1.4-7.7-2.4-15.4-3.3-23.2
	c-0.7-5.9-1.5-11.8-2.5-17.7c-1.6-9.4-2.8-18.9-4.1-28.4c-1.5-11.4-3.1-22.8-4.9-34.1c-2.2-14-4.1-28-6.1-42.1
	c-1.6-11.6-3.4-23.2-5.2-34.7c-0.8-5-1.5-9.9-2.3-14.9c-0.2-1.1-0.3-2.3-0.5-3.4c-1.2-8.1-2.3-16.2-3.4-24.2
	c-1.6-11.7-3.2-23.5-4.9-35.2c-0.3-1.9-0.5-3.8-0.8-5.7c-0.4-2.7-0.8-5.4-1.1-8.1c-0.2-1.2-0.2-1.2-0.3-2.5c-0.4-3.1-0.9-6-1.9-9
	c-0.2-1.5-0.4-3-0.6-4.6c-0.1-0.9-0.2-1.9-0.3-2.8c-0.1-1-0.2-2-0.4-3.1c-1.3-10.5-2.7-21-4.2-31.5c-1-7-2-13.9-2.9-20.9
	c-1-7.5-2-14.9-3.1-22.4c-0.3-1.8-0.5-3.6-0.8-5.5c-2.4-26.1-2.4-26.1-15.8-47.3c-7.5-3.7-14.7-3.4-22.9-3.4c-1.5,0-3,0-4.6,0
	c-4.2,0-8.3,0-12.5,0c-4.5,0-9,0-13.5,0c-8.8,0-17.6,0-26.5,0c-7.2,0-14.3,0-21.5,0c-1.5,0-1.5,0-3.1,0c-2.1,0-4.1,0-6.2,0
	c-19.4,0-38.9,0-58.3,0c-17.8,0-35.6,0-53.4,0c-18.3,0-36.5,0-54.8,0c-10.3,0-20.5,0-30.8,0c-8.7,0-17.5,0-26.2,0
	c-4.5,0-8.9,0-13.4,0c-4.1,0-8.2,0-12.2,0c-1.5,0-2.9,0-4.4,0c-9.2-0.1-15.6,0.3-22.9,6.3c-6.5,7.4-8.8,15.8-10.4,25.3
	C413,122,413,122,412,123c-2.1,0.2-4.3,0.4-6.4,0.5c-1.4,0.1-2.7,0.2-4.1,0.3c-0.7,0.1-1.5,0.1-2.2,0.2
	c-21.2,1.6-41.9,5.1-61.1,14.7c-0.7,0.3-1.4,0.7-2.1,1.1c-10.2,5.2-19.8,11.1-27.4,19.8c-3.3,2.9-5.2,3.1-9.4,3.5
	c-4.2,0.5-7.9,0.9-11.9,2.4c-4.3,1.6-8.5,2.3-13,3c-4,0.6-7.9,1.3-11.8,2c-0.7,0.1-1.3,0.2-2,0.4c-2.8,0.5-5.4,1.1-8,2.1
	c-3.3,1.3-6.6,1.8-10.1,2.4C227,178,227,178,215.6,187.9c-2.7,3.9-5.1,8-7.4,12.2c-3.2,5.8-6.5,11.6-9.8,17.3
	c-8.1,13.8-16.2,27.7-23.8,41.8c-2.5,4.5-5.1,8.9-7.8,13.3c-2.9,4.8-5.6,9.7-8.2,14.6c-2.6,4.7-5.2,9.3-7.8,14c-0.6,1-1.1,2-1.7,3
	c-3.8,6.7-7.6,13.3-11.5,19.9c-3.1,5.2-6.1,10.5-9.1,15.8c-2.9,5.2-5.9,10.3-8.8,15.4c-5.7,9.8-11.2,19.8-16.6,29.8
	c-0.3,0-0.7,0-1,0C102,285.3,102,185.7,102,83z"/>
<path fill="#5CAB56" d="M451,87.6c1.5,0,3,0,4.6,0c4.2,0,8.4,0,12.5,0c4.5,0,9,0,13.5,0c8.8,0,17.7,0,26.5,0c7.2,0,14.3,0,21.5,0
	c1.5,0,1.5,0,3.1,0c2.1,0,4.1,0,6.2,0c19.4,0,38.9,0,58.3,0c16.7,0,33.4,0,50.1,0c19.4,0,38.8,0,58.1,0c2.1,0,4.1,0,6.2,0
	c1.5,0,1.5,0,3.1,0c7.2,0,14.3,0,21.5,0c8.7,0,17.5,0,26.2,0c4.5,0,8.9,0,13.4,0c4.1,0,8.2,0,12.2,0c1.5,0,2.9,0,4.4,0
	c15.8-0.1,15.8-0.1,22.9,4.9c12.2,12.5,12.5,32.3,14.8,48.9c0.3,1.9,0.5,3.8,0.8,5.7c1.5,10.6,2.9,21.2,4.2,31.8
	c1,8.1,2.3,16.2,3.6,24.2c1.1,6.8,2,13.5,2.7,20.3c0.5,4.9,1.3,9.7,2.2,14.6c1.4,7.8,2.6,15.6,3.6,23.4c1.9,14,3.9,28,6.1,42
	c0.5,3.3,1,6.6,1.5,9.9c0.1,0.8,0.2,1.5,0.4,2.3c1.3,8.1,2.4,16.3,3.6,24.4c0.5,3.5,1,7,1.5,10.4c1.8,12.9,3.7,25.8,5.5,38.7
	c0.1,0.9,0.3,1.9,0.4,2.9c0.6,4.6,1.3,9.2,1.9,13.9c1.1,8.1,2.3,16.1,3.7,24.2c1.7,10.1,3,20.2,4.3,30.3c1.2,9.5,2.5,18.9,4.1,28.4
	c1,5.9,1.8,11.8,2.5,17.7c1,7.7,2.1,15.4,3.3,23.1c1.1,6.9,2.2,13.9,3.2,20.8c0.2,1.5,0.2,1.5,0.5,3.1c0.7,5,1.5,10,2.1,15
	c1.5,11,3.1,22.1,4.7,33.1c0.4,2.4,0.7,4.8,1.1,7.2c1.5,10,1.5,10,3,19.9c0.6,4.1,1.3,8.2,1.9,12.4c0.2,1.5,0.5,3.1,0.7,4.6
	c4.1,26.4,4.1,26.4-2.1,35.3c-6.4,7-12.6,10.8-22,12c-2.9,0.1-5.9,0.1-8.8,0.1c-0.9,0-1.8,0-2.7,0c-3,0-5.9,0-8.9,0
	c-2.1,0-4.3,0-6.4,0c-5.9,0-11.8,0-17.7,0c-6.4,0-12.7,0-19.1,0c-14.6,0-29.3,0-43.9,0c-7.2,0-14.5,0-21.7,0c-24.7,0-49.5,0-74.2,0
	c-1.6,0-3.1,0-4.7,0c-0.8,0-1.5,0-2.3,0c-3.9,0-7.8,0-11.7,0c-0.8,0-1.5,0-2.3,0c-25.1,0-50.2,0-75.4,0.1c-26.6,0-53.1,0.1-79.7,0.1
	c-2.9,0-5.8,0-8.7,0c-0.7,0-1.4,0-2.2,0c-11.6,0-23.1,0-34.7,0c-11.6,0-23.2,0-34.8,0c-6.3,0-12.6,0-18.9,0c-5.8,0-11.5,0-17.3,0
	c-2.1,0-4.2,0-6.3,0c-2.8,0-5.7,0-8.5,0c-0.8,0-1.6,0-2.5,0c-8.5-0.1-15.8-3.6-22-9.4c-6.3-7.3-7.3-14.8-7.2-24.2
	c0.3-2.9,0.7-5.6,1.3-8.4c1.1-5.5,1.8-11,2.5-16.6c1.5-12.4,3.3-24.7,5.1-37.1c0.4-3,0.9-6.1,1.3-9.1c0.3-2,0.6-4,0.9-6
	c0.9-6.4,1.9-12.9,2.8-19.3c1.4-10.1,2.9-20.1,4.4-30.1c0.8-5.2,1.5-10.3,2.3-15.5c0.8-5.4,1.6-10.9,2.4-16.3
	c2.6-17.4,5.1-34.8,7.5-52.2c3.1-22.5,6.3-45.1,9.6-67.6c0.5-3.1,0.9-6.3,1.3-9.4c0.5-3.7,1.1-7.4,1.6-11.1c0.2-1.4,0.4-2.7,0.6-4.1
	c0.3-1.9,0.5-3.7,0.8-5.6c0.2-1.1,0.3-2.1,0.5-3.2c0.4-2.4,0.4-2.4,1.4-3.4c0.3-2.1,0.6-4.3,0.9-6.4c0.1-0.7,0.2-1.3,0.2-2
	c0.2-1.4,0.3-2.8,0.5-4.2c2.3-19.5,2.3-19.5,3.9-29c1.3-7.9,2.4-15.8,3.5-23.7c0.3-1.9,0.3-1.9,0.5-3.8c0.3-2.5,0.7-4.9,1-7.4
	c1.6-11.9,3.3-23.8,5.3-35.7c2-11.6,3.7-23.3,5.1-35c1-8,2.4-15.9,4-23.8c-3.6,0.4-7.2,0.9-10.8,1.4c-1,0.1-2,0.3-3.1,0.4
	c-1.5,0.2-1.5,0.2-3,0.4c-0.9,0.1-1.8,0.2-2.7,0.3c-2.5,0.5-4.3,1.3-6.5,2.5c-1.8,0.5-3.7,0.9-5.5,1.3c-10,2.4-18.6,7.2-26.5,13.8
	c0.1,0.6,0.3,1.1,0.4,1.7c0.7,2.9,1.3,5.8,1.9,8.8c0.9,3.3,2.3,6.4,3.7,9.5c0.8,2.3,1.5,4.6,2.2,6.9c2.5,8.4,5.3,16.6,8.1,24.9
	c0.5,1.5,0.5,1.5,1,3c0.4,1.3,0.4,1.3,0.9,2.7c3.2,10.4,2.4,19.7-2.2,29.5c-2.5,4.8-5.2,9.4-8,14c-1.1,2-2.3,3.9-3.4,5.9
	c-0.6,1-1.1,2-1.7,3c-2.1,3.6-4.1,7.1-6.1,10.7c-3.2,5.8-6.5,11.5-9.8,17.2c-4.6,7.9-9.2,15.9-13.7,23.8
	c-5.2,9.2-10.5,18.3-15.8,27.4c-5.2,8.9-10.3,17.9-15.4,26.9c-0.3,0.6-0.7,1.2-1,1.7c-3.4,6-6.9,12-10.3,18c-1.4,2.5-2.8,5-4.3,7.5
	c-1,1.7-2,3.5-2.9,5.2c-18.5,32.4-18.5,32.4-31.6,36.7c-10.5,2.6-20.5-4.7-29.1-9.9c-2.1-1.3-4.1-2.5-6.1-3.8
	c-4.7-3-9.5-5.8-14.3-8.6c-1-0.6-1.9-1.1-2.9-1.7c-6-3.5-11.9-7-17.9-10.4c-8.2-4.7-16.3-9.6-24.4-14.6c-5.5-3.4-11.1-6.5-16.7-9.6
	c-5-2.8-9.8-6-14.5-9.4c-0.7-0.5-1.4-1-2.1-1.5c-5.4-4.2-9.2-9.8-10.2-16.7c-0.4-7.3,2-12.1,5.6-18.2c0.5-1,1.1-1.9,1.6-2.9
	c1.7-2.9,3.3-5.8,5-8.7c0.9-1.6,1.9-3.3,2.8-4.9c1.8-3.1,3.6-6.2,5.4-9.3c2.9-5,5.8-10.1,8.7-15.1c0.5-0.9,1-1.7,1.5-2.6
	c1-1.8,2-3.5,3-5.3c2.6-4.5,5.2-9.1,7.8-13.6c1-1.8,2-3.5,3-5.3c1.7-2.9,3.3-5.8,5-8.8c0.5-0.9,0.5-0.9,1-1.8c1-1.7,1.9-3.3,2.9-5
	c1.3-2.3,2.6-4.5,3.9-6.8c3.1-5.5,6.2-10.9,9.4-16.3c2.5-4.4,5-8.7,7.5-13.1c4.4-7.8,8.8-15.5,13.2-23.3c0.3-0.6,0.7-1.2,1-1.8
	c4-7.1,8.1-14.1,12.2-21.1c1.5-2.6,3.1-5.3,4.6-8c0.5-0.8,0.9-1.6,1.4-2.4c0.9-1.6,1.8-3.2,2.8-4.8c6-10.5,11.5-14.5,23.2-17.7
	c5.3-1.4,10.6-2.5,15.9-3.4c6.7-1.2,13.3-2.8,19.8-4.6c3.2-0.8,6.4-1.4,9.7-1.9c5.3-0.8,10.3-2.1,15.5-3.4c2.4-0.6,4.8-1,7.3-1.2
	c4.1-0.5,4.1-0.5,7.5-2.4c0.4-0.9,0.4-0.9,0.8-1.8c6.8-12.6,28.1-21,41.1-25.2c2.4-0.7,4.7-1.3,7.1-2c0.7-0.2,1.3-0.4,2-0.6
	c16.7-5.1,33.7-6.1,51-7.4c0.3-1.1,0.5-2.2,0.8-3.3c0.4-1.5,0.7-2.9,1.1-4.4c0.2-0.7,0.4-1.4,0.5-2.2c2.1-8.7,5.2-15.6,12.6-21.1
	C436.1,87,443.3,87.6,451,87.6z M464.2,140c-0.5,3.5-1,7-1.4,10.4c-0.2,1.5-0.2,1.5-0.4,3c-0.8,5.8-1.5,11.6-2.2,17.4
	c-0.6,5.4-1.4,10.7-2.4,16c-1.5,8.5-2.7,17-3.8,25.5c-0.5,4.2-1.1,8.3-1.6,12.5c-0.1,0.8-0.2,1.6-0.3,2.4
	c-1.5,11.6-3.2,23.2-5.4,34.7c-1.4,7-2.1,13.9-2.7,21c-0.1,0.8-0.1,1.6-0.2,2.4c-0.1,0.7-0.1,1.4-0.2,2.1c-0.4,2.8-1.1,5.5-1.8,8.2
	c-1,4.1-1.5,8.3-2,12.5c-0.1,1-0.3,2-0.4,3c-0.4,3.2-0.9,6.4-1.3,9.6c-0.5,3.4-0.9,6.8-1.4,10.1c-0.3,2.3-0.6,4.6-1,6.9
	c-1.4,10-2.8,20.1-4.3,30.1c-1.8,12.6-3.6,25.3-5.1,38c-0.8,6.4-1.8,12.8-2.9,19.2c-1.9,10.8-3.3,21.6-4.8,32.4
	c-0.1,0.8-0.2,1.6-0.3,2.4c-0.9,6.9-1.8,13.7-2.6,20.6c-0.1,0.7-0.2,1.5-0.3,2.2c-0.2,2-0.5,4-0.7,5.9c-0.4,2.7-0.8,5.4-1.4,8.1
	c-3,14.2-4.5,28.7-6.3,43.1c-1.3,10.9-3,21.8-4.9,32.7c-2.1,12-3.6,24.1-5.2,36.2c-0.3,2.5-0.7,5-1,7.6c-0.2,1.6-0.4,3.3-0.6,4.9
	c-0.1,0.7-0.2,1.5-0.3,2.2c-0.7,5.5-1.3,11-1.8,16.6c150.5,0,301,0,456,0c0.1-9.3-17-127.6-18.2-136c-0.2-1.5-0.4-3.1-0.7-4.6
	c-1.4-9.9-1.4-9.9-3.2-19.7c-1.1-5.3-1.6-10.7-2.2-16.1c-1.1-10.6-2.8-21.1-4.7-31.6c-2.4-13.3-4.3-26.5-5.8-39.9
	c-0.8-6.9-1.7-13.7-2.9-20.5c-0.5-3-0.9-6-1.3-9c-2.6-19.8-5.4-39.7-8.3-59.5c-0.2-1.4-0.4-2.9-0.6-4.3c-0.2-1-0.2-1-0.3-2.1
	c-0.8-5.4-1.6-10.9-2.3-16.3c-0.9-6.2-1.8-12.4-2.7-18.5c-0.1-0.7-0.2-1.4-0.3-2.2c-0.5-3.6-1.1-7.2-1.6-10.8
	c-1.2-7.6-2.2-15.1-3.2-22.7c-0.7-5.2-1.4-10.4-2.2-15.6c-0.1-1-0.3-2-0.4-3.1c-0.6-4.2-1.2-8.4-1.8-12.7c-2-13.6-3.8-27.2-5.5-40.8
	c-0.1-0.9-0.2-1.7-0.3-2.6c-0.2-1.6-0.4-3.3-0.6-4.9c-0.1-3.6-0.1-3.6-1.7-6.6c-1.7-0.1-3.4-0.1-5-0.1c-1.1,0-2.2,0-3.3,0
	c-1.2,0-2.4,0-3.7,0c-1.3,0-2.6,0-3.9,0c-3.6,0-7.2,0-10.7,0c-3.9,0-7.7,0-11.6,0c-6.7,0-13.4,0-20,0c-9.7,0-19.3,0-29,0
	c-15.7,0-31.3,0-47,0c-15.2,0-30.4,0-45.7,0c-1.4,0-1.4,0-2.8,0c-4.7,0-9.4,0-14.1,0C542.3,140,503.3,140,464.2,140z"/>
<path fill="#74B257" d="M712.4,360.7c-9.2,15.7-37.5,25.6-53.9,31.5c-0.6,0.2-1.3,0.5-1.9,0.7c-12.3,4.3-24.6,5.6-37.5,5.4
	c-1.1,0-1.1,0-2.1,0c-33.3-0.3-61.4-13.5-86.9-34.4c-0.7-0.6-1.5-1.2-2.2-1.8c-21-17.6-35.1-46.7-39.8-73.2
	c-0.2-0.8-0.3-1.7-0.5-2.5c-1.8-10-1.8-87.8-1.8-88.5c0-1,0-2,0.1-2.9c0.3-3.1,0.9-5.9,2.1-9c0.4-1.1,0.8-2.3,1.2-3.4
	c3.5-6.8,8.4-11.1,15.6-13.9c6.5-1.9,12.4-0.7,18.3,2.3c6.4,3.9,11.6,8.7,14,16c0.1,2.3,0.1,4.6,0.2,6.9c0,0.7,0,1.4,0,2.1
	c0,1.5,0,3,0,4.5c0,2.4,0,4.8,0.1,7.3c0.1,6.9,0.1,13.8,0.1,20.6c-0.3,52.4,8.3,84.5,25.3,96.5s36.8,20.5,58.1,20.5
	c21.1-0.3,39.3-6.3,54.3-21.4c0.5-0.5,1-1,1.5-1.5c1.2-1.2,2.4-2.4,3.7-3.6c9.6-9.8,14.8-23.6,17.7-36.8c0.2-0.7,0.3-1.4,0.5-2.1
	c1.9-8.6,1.7-17.2,1.7-26c0-2.8,0-5.7,0-8.5c0-8.1,0-16.2,0-24.3c0-5-0.1-28.3,0-30.9c0.2-7.8,1.2-8.8,5.3-13c0.5-0.4,1-0.8,1.5-1.3
	c0.7-0.7,1.4-1.3,2.2-2c0.6-0.4,1.3-0.9,1.9-1.4c0.6-0.5,1.3-0.9,1.9-1.4c5.9-3.6,11.3-4,18-3.2c8.1,2.4,13.5,6.7,17.9,13.9
	c1.7,3.2,2.6,6,3,9.1c0.3,1.8,0.4,3.7,0.3,5.8c0,1.1,0,1.1,0,2.3c0,2.5,0,5,0,7.6c0,1.8,0,3.6,0,5.3c0,3.7,0,7.5,0,11.2
	c0,3.8,0,7.6,0,11.4c0.2,45-3.8,82.7-33.1,118.7C717,356,717,356,715,359C714.3,359,712.4,360.7,712.4,360.7z"/>
<path fill="#FDFDFD" d="M295.5,217.4c3.5,1.4,4.2,3.2,5.7,6.6c1,2.7,1.6,5.3,2.3,8.1c1.3,5,9.7,33.5,8.7,36.1
	c-0.6,1.5-1.4,3.1-2.5,4.9c-0.7,1.2-1.5,2.5-2.2,3.7c-0.4,0.6-0.8,1.2-1.2,1.9c-1.7,2.8-3.3,5.7-4.9,8.5
	c-3.5,6.2-7.1,12.3-10.6,18.4c-2.8,4.8-5.6,9.6-8.3,14.4c-12.2,21.3-12.2,21.3-17.4,29.5c-2.2,3.6-4.1,7.2-6.1,10.9
	c-3,5.5-6.2,11-9.3,16.5c-0.7,1.2-1.4,2.5-2.1,3.7c-1.4,2.5-2.8,4.9-4.2,7.4c-1.9,3.3-3.8,6.6-5.6,9.9c-0.5,1-1.1,1.9-1.7,2.9
	c-1,1.8-2,3.5-3,5.3c-2.2,3.9-4.4,7.7-6.7,11.5c-6.1-0.4-56.3-30-64-34c2.5-5.2,5.4-10.1,8.2-15.1c0.6-1.1,1.2-2.2,1.9-3.3
	c5.7-10.2,11.5-20.2,17.4-30.3c3.2-5.5,6.4-11,9.5-16.6c0.5-0.8,0.9-1.7,1.4-2.5c1-1.7,2-3.5,3-5.2c2.9-5,5.7-10,8.6-15.1
	c1-1.8,2.1-3.6,3.1-5.4c3-5.3,6.1-10.6,9.1-15.9c1-1.7,2-3.4,2.9-5.1c0.5-0.8,0.9-1.6,1.4-2.5c2.7-4.8,5.5-9.6,8.1-14.5
	c0.6-1.1,1.3-2.3,1.9-3.4c1.2-2.2,2.4-4.4,3.6-6.6c8-14.4,8-14.4,13.7-16.1C261.2,224.3,292.4,217.5,295.5,217.4z"/>
<path fill="#B0CA60" d="M695,433c2.4,1.5,2.9,2.5,3.6,5.3c0.1,1.3,0.1,1.3,0.1,2.6c0.1,0.8,0.1,1.7,0.2,2.6c-1.5,4.3-5,5.7-8.9,7.6
	c-5,2.3-10.1,4.4-15.3,6.5c-1.4,0.6-2.7,1.1-4.1,1.7c-2.7,1.1-5.3,2.2-8,3.3c-10.6,4.4-21.2,8.8-31.8,13.3c-1.1,0.5-1.1,0.5-2.2,0.9
	c-8.3,3.5-16.6,7.1-24.9,10.8c-7.1,3.2-14.4,6-21.8,8.4c5.3,10.5,5.4,11.1,5.8,11.1c3.3-0.3,14-5.1,17.3-6.6
	c0.4-0.2,63.5-26.7,74.1-30.7c1-0.4,1.9-0.8,2.9-1.2c5.5-2.1,12.6-4.9,15.8-2.6s6.1,11,2,13s-97.6,42.7-103,45
	c1.2,2.5,5.1,10.7,5.7,10.5c6.8-2,65.6-26.2,67.3-26.9c0.8-0.3,15.1-5.9,17.4-6.6s12.2-5,12.6,4s-0.2,8.4-1.8,9.6s-1.6,1.2-2.9,1.9
	c-16.5,9.5-84.6,36.5-89.7,37.8c-3.8,0.9-7.7,1.3-11.6,0.8c-3-2.5-4.9-5.2-6.9-8.6c-0.5-0.9-1-1.8-1.6-2.7c-0.5-0.9-1.1-1.9-1.7-2.9
	c-0.6-1-1.1-2-1.7-3c-1.2-2-2.3-4-3.5-6c-2.3-4-4.6-7.9-7-11.9c-0.4-0.7-0.8-1.4-1.2-2.1c-2.5-4.3-5.1-8.5-7.7-12.7
	c-2.3-3.8-4.5-7.5-6.6-11.4c-1-1.9-2.1-3.8-3.1-5.7c-0.5-1-0.5-1-1.1-2c-1.2-2.2-2.5-4.4-3.7-6.7c-0.4-0.7-0.8-1.4-1.1-2.2
	c-1.2-2.1-2.2-3.6-4-5.1c-5.1-1.1-10.1,0.1-15,1.5c-6.9,1.8-19.5,4.3-22,0.5s-1.9-2-2.6-5.9c0.2-3,0.5-3.9,2.4-6.4
	c11.6-6.2,41.4-10.9,47.2-7.7c1.8,1,2.9,1.8,6.8,7.2s12.4,18.7,13.3,18.4c1.2-0.4,2.5-0.8,3.7-1.3c0.7-0.2,102.6-42.4,103.6-42.8
	C685.4,433.7,689.6,432.3,695,433z"/>
<path fill="#72AA61" d="M492,642c36.6,0,73.3,0,111,0c-2.8,2.8-5.1,2.7-9,3c-1.3-0.3-2.7-0.6-4-1c-1,0.3-2,0.7-3,1c0-0.7,0-1.3,0-2
	c-0.9,0.1-0.9,0.1-1.9,0.3c-0.8,0.1-1.6,0.2-2.4,0.3c-0.8,0.1-1.6,0.2-2.4,0.3C578,644,578,644,575,643c-0.3,0.7-0.7,1.3-1,2
	c-0.6-0.2-1.2-0.3-1.8-0.5c-3.5-0.8-7.1-0.7-10.7-0.6c-1.2,0-1.2,0-2.5,0c-1.7,0-3.5,0-5.2,0c-2.6,0-5.3,0-7.9,0c-1.7,0-3.4,0-5.1,0
	c-0.8,0-1.6,0-2.4,0c-4.6,0-8.9,0.4-13.5,1.1c-4.7-0.2-9.4-1.2-14-2c-0.3,0.7-0.7,1.3-1,2c-6-0.7-12-1.3-18-2
	C492,642.7,492,642.3,492,642z"/>
<path fill="#75A87E" d="M438,89c-0.7,0-1.3,0-2,0c-0.3,1-0.7,2-1,3c-2.6,0-5.3,0-8,0C430.3,88.7,433.5,87.3,438,89z"/>
<path fill="#B7C578" d="M578,480c-1.7,1.6-3.3,3.3-5,5c-1-0.7-2-1.3-3-2c0-0.7,0-1.3,0-2C572.9,480,575,479.9,578,480z"/>
<path fill="#BCCA75" d="M509,460c0.7,0.3,1.3,0.7,2,1c-1.6,2-3.3,4-5,6c-0.3-0.7-0.7-1.3-1-2C506.5,461.3,506.5,461.3,509,460z"/>
<path fill="#FEFEFE" d="M163.5,381.7c20.9,11.9,41.9,23.9,62.8,35.8"/>
<path fill="#FEFEFE" d="M228.7,413.8"/>
<circle fill="#B6CD5D" cx="625.7" cy="575.5" r="15.5"/>
<ellipse fill="#B6CD5D" cx="686.3" cy="550.6" rx="10.2" ry="10.3"/>
<path fill="#B6CD5D" d="M707.5,367.2c2.3-2.3,4.7-4.9,7.2-8c1.8-2.2,3.3-4.4,4.7-6.5"/>
<line fill="#74B257" x1="711.6" y1="362.8" x2="716.1" y2="357.3"/>
<path fill="#B0CA60" d="M723.5,473"/>
<path fill="#74B257" d="M700.2,216.2"/>
</svg>
