<?xml version="1.0" standalone="no"?>
<!DOCTYPE svg PUBLIC "-//W3C//DTD SVG 20010904//EN"
 "http://www.w3.org/TR/2001/REC-SVG-20010904/DTD/svg10.dtd">
<svg version="1.0" xmlns="http://www.w3.org/2000/svg"
 width="200.000000pt" height="200.000000pt" viewBox="0 0 200.000000 200.000000"
 preserveAspectRatio="xMidYMid meet">

<g transform="translate(0.000000,200.000000) scale(0.100000,-0.100000)"
fill="#fff" stroke="none">
<path d="M1200 1815 c-69 -69 -128 -125 -132 -125 -5 0 -8 21 -8 48 0 52 -25
103 -62 124 -18 10 -113 13 -435 13 -400 0 -412 -1 -440 -21 -15 -11 -36 -36
-45 -55 -17 -32 -18 -92 -18 -834 0 -756 1 -802 18 -834 10 -19 34 -43 53 -53
32 -17 80 -18 909 -18 668 0 879 3 888 12 17 17 17 649 0 666 -9 9 -87 12
-287 12 l-276 0 289 289 c251 251 287 291 278 307 -15 26 -586 594 -598 594
-5 0 -65 -56 -134 -125z m190 -10 l54 -54 -37 -16 c-20 -8 -52 -15 -72 -15
-37 0 -105 24 -105 37 0 9 91 103 100 103 3 0 30 -25 60 -55z m-406 -17 c11
-15 16 -45 16 -90 l0 -68 -435 0 -435 0 0 74 c0 54 4 79 16 90 13 14 65 16
419 16 l404 0 15 -22z m352 -128 c45 0 72 6 105 24 l44 24 111 -110 111 -109
-24 -46 c-30 -61 -31 -145 -2 -214 l22 -50 -39 -42 c-89 -96 -589 -597 -597
-597 -4 0 -6 57 -5 126 l3 125 52 18 c111 38 173 122 173 237 0 116 -86 223
-191 240 l-39 7 0 150 0 151 56 57 56 57 52 -24 c36 -17 69 -24 112 -24z
m-336 -690 l0 -590 -435 0 -435 0 0 590 0 590 435 0 435 0 0 -590z m815 310
c-27 -27 -53 -50 -58 -50 -13 0 -37 67 -37 105 0 20 7 52 15 72 l16 37 57 -57
57 -57 -50 -50z m-698 -65 c50 -21 72 -42 94 -90 24 -52 24 -116 0 -163 -22
-42 -43 -63 -88 -86 -64 -32 -63 -35 -63 169 0 121 4 185 10 185 6 0 27 -7 47
-15z m753 -555 l0 -30 -312 0 -312 0 29 30 29 30 283 0 283 0 0 -30z m0 -130
l0 -30 -377 0 -377 0 29 30 29 30 348 0 348 0 0 -30z m0 -245 l0 -155 -411 0
c-371 0 -411 2 -405 16 3 9 6 22 6 30 0 12 35 14 205 14 l205 0 0 30 0 30
-205 0 -205 0 0 30 c0 20 5 30 15 30 10 0 15 11 15 35 0 24 -5 35 -15 35 -10
0 -15 10 -15 30 l0 30 405 0 405 0 0 -155z m-870 -47 c0 -117 35 -108 -440
-108 -302 0 -409 3 -418 12 -7 7 -12 43 -12 90 l0 78 435 0 435 0 0 -72z"/>
<path d="M440 1720 l0 -30 125 0 125 0 0 30 0 30 -125 0 -125 0 0 -30z"/>
<path d="M1265 1310 c-18 -20 -18 -21 3 -43 l22 -21 20 20 20 20 -23 22 -24
22 -18 -20z"/>
<path d="M530 1230 c0 -21 -5 -30 -16 -30 -8 0 -29 -13 -45 -29 -25 -25 -29
-37 -29 -81 0 -44 4 -56 29 -81 25 -24 38 -29 79 -29 58 0 75 -15 70 -62 -3
-32 -5 -33 -52 -36 -37 -2 -52 1 -58 12 -11 20 -68 22 -68 2 0 -20 40 -66 66
-76 17 -7 24 -17 24 -35 0 -21 5 -25 30 -25 25 0 30 4 30 25 0 19 8 28 34 39
45 19 70 66 63 119 -8 58 -43 89 -109 95 -63 5 -78 15 -78 51 0 38 17 51 67
51 32 0 45 -5 53 -20 7 -13 21 -20 40 -20 35 0 35 1 15 44 -9 19 -30 40 -50
49 -26 13 -35 23 -35 42 0 21 -5 25 -30 25 -27 0 -30 -3 -30 -30z"/>
<path d="M1160 345 c0 -32 2 -35 30 -35 28 0 30 3 30 35 0 32 -2 35 -30 35
-28 0 -30 -3 -30 -35z"/>
<path d="M1280 345 c0 -32 2 -35 30 -35 28 0 30 3 30 35 0 32 -2 35 -30 35
-28 0 -30 -3 -30 -35z"/>
<path d="M1410 345 c0 -32 2 -35 30 -35 28 0 30 3 30 35 0 32 -2 35 -30 35
-28 0 -30 -3 -30 -35z"/>
<path d="M1552 370 c-22 -9 -23 -14 -20 -92 l3 -83 135 0 135 0 3 80 c2 66 0
82 -14 92 -21 15 -206 17 -242 3z m198 -90 l0 -30 -80 0 -80 0 0 30 0 30 80 0
80 0 0 -30z"/>
<path d="M530 220 c0 -27 3 -30 30 -30 27 0 30 3 30 30 0 27 -3 30 -30 30 -27
0 -30 -3 -30 -30z"/>
</g>
</svg>
