<?xml version="1.0" standalone="no"?>
<!DOCTYPE svg PUBLIC "-//W3C//DTD SVG 20010904//EN"
 "http://www.w3.org/TR/2001/REC-SVG-20010904/DTD/svg10.dtd">
<svg version="1.0" xmlns="http://www.w3.org/2000/svg"
 width="542.000000pt" height="515.000000pt" viewBox="0 0 542.000000 515.000000"
 preserveAspectRatio="xMidYMid meet">

<g transform="translate(0.000000,515.000000) scale(0.100000,-0.100000)"
fill="#fff" stroke="none">
<path d="M159 4967 c-29 -22 -31 -51 -5 -76 23 -21 30 -22 134 -18 76 4 115 2
126 -6 13 -11 34 -83 50 -172 3 -16 15 -73 26 -125 12 -52 25 -117 30 -145 17
-96 40 -200 52 -238 14 -46 36 -57 118 -57 32 0 61 -4 64 -9 7 -11 46 -374 67
-616 5 -60 13 -150 19 -200 13 -116 29 -283 40 -415 5 -58 14 -150 19 -205 18
-175 40 -395 56 -570 9 -93 20 -213 26 -265 9 -85 21 -209 49 -515 5 -55 14
-145 19 -200 6 -55 18 -172 26 -260 25 -253 25 -258 36 -295 49 -159 181 -277
343 -306 53 -10 263 -13 831 -13 832 -1 866 1 968 57 61 33 152 122 179 177
31 60 58 164 58 223 0 29 6 107 14 175 8 67 22 203 31 302 9 99 22 243 30 320
8 77 22 214 30 305 9 91 22 230 30 310 8 80 21 219 30 310 8 91 20 210 25 265
6 55 15 159 21 230 5 72 12 139 15 150 2 11 8 74 13 140 5 66 14 170 20 230
21 207 40 400 51 520 6 66 15 127 19 135 6 10 30 17 77 20 38 3 75 9 82 13 18
12 32 50 47 132 7 39 20 102 28 140 9 39 29 140 46 225 18 85 36 171 42 191
l9 37 130 3 c116 4 132 6 151 25 28 28 18 59 -23 73 -47 17 -4227 15 -4249 -2z
m1353 -97 c3 0 17 -19 31 -42 92 -155 253 -250 509 -302 103 -21 343 -21 446
-1 93 19 213 54 226 66 6 5 16 9 22 9 21 0 136 71 193 119 30 25 69 70 88 99
27 41 39 52 61 52 260 5 932 1 941 -4 13 -9 10 -41 -14 -151 -15 -67 -37 -173
-59 -280 -30 -145 -40 -186 -47 -190 -4 -3 -733 -5 -1620 -5 -1461 0 -1615 1
-1625 15 -7 9 -17 42 -23 73 -5 31 -20 102 -32 157 -33 156 -49 235 -59 298
-6 33 -12 63 -15 67 -3 5 1 12 9 17 9 5 228 7 488 6 260 -2 476 -3 480 -3z
m1403 -4 c18 -5 17 -7 -10 -37 -107 -113 -261 -181 -485 -214 -293 -44 -602
43 -752 210 -22 24 -25 32 -14 40 13 10 1220 11 1261 1z m787 -826 c-1 -47 -9
-148 -16 -225 -8 -77 -20 -194 -26 -260 -7 -66 -16 -130 -21 -142 l-9 -23
-1339 0 c-1061 0 -1341 3 -1349 13 -12 14 -21 91 -70 612 -6 57 -5 95 1 103 7
9 299 12 1421 10 l1411 -3 -3 -85z m-77 -762 c6 -6 -3 -131 -30 -388 -24 -229
-44 -428 -60 -600 -26 -272 -45 -467 -60 -620 -8 -80 -17 -179 -20 -222 -4
-42 -12 -84 -18 -93 -11 -14 -116 -16 -1143 -22 -1322 -7 -1167 -25 -1177 133
-3 54 -11 140 -16 189 -6 50 -17 162 -25 250 -9 88 -22 230 -31 315 -39 402
-63 654 -75 795 -6 66 -15 149 -21 185 -9 57 -8 66 8 77 14 11 274 13 1339 11
727 -2 1325 -6 1329 -10z m-198 -2054 c5 -15 -7 -158 -43 -482 -18 -162 -42
-221 -120 -290 -102 -91 -52 -87 -989 -87 l-820 0 -58 29 c-71 35 -135 96
-165 156 -24 49 -43 159 -63 365 -16 179 -22 292 -15 310 5 13 144 15 1136 15
1027 0 1131 -1 1137 -16z"/>
</g>
</svg>
